/* XPM */
static char * whm_xpm[] = {
"32 32 697 2",
"  	c None",
". 	c #D65B30",
"+ 	c #D48951",
"@ 	c #D08C54",
"# 	c #CE8650",
"$ 	c #CC814D",
"% 	c #CA7B4A",
"& 	c #C87546",
"* 	c #C57042",
"= 	c #C26A3F",
"- 	c #C0643C",
"; 	c #BF5E38",
"> 	c #CF4D29",
", 	c #D8532B",
"' 	c #D87542",
") 	c #D5814B",
"! 	c #D49458",
"~ 	c #D18E55",
"{ 	c #CF8952",
"] 	c #CC834E",
"^ 	c #CA7D4A",
"/ 	c #C87747",
"( 	c #C67144",
"_ 	c #C46B40",
": 	c #C75B34",
"< 	c #CA552F",
"[ 	c #C75631",
"} 	c #CB502C",
"| 	c #DA7441",
"1 	c #D98A50",
"2 	c #D9A260",
"3 	c #D69C5D",
"4 	c #D4965A",
"5 	c #D29056",
"6 	c #D08A53",
"7 	c #CE854F",
"8 	c #CB7F4C",
"9 	c #C87948",
"0 	c #C67344",
"a 	c #CC5D34",
"b 	c #CC5B33",
"c 	c #C2663D",
"d 	c #C0623A",
"e 	c #C45631",
"f 	c #D04C27",
"g 	c #DB7340",
"h 	c #DC8F53",
"i 	c #DEAF69",
"j 	c #DCAA65",
"k 	c #DAA462",
"l 	c #D89E5E",
"m 	c #D5985B",
"n 	c #D29257",
"o 	c #D08C53",
"p 	c #CC804C",
"q 	c #CE683B",
"r 	c #CF6035",
"s 	c #C86F42",
"t 	c #C46D41",
"u 	c #C2683E",
"v 	c #C0633B",
"w 	c #BE5E38",
"x 	c #C7522D",
"y 	c #DC6B3A",
"z 	c #E09254",
"A 	c #E4BD71",
"B 	c #E2B76D",
"C 	c #DFB16A",
"D 	c #DCAB66",
"E 	c #DAA563",
"F 	c #D89F5F",
"G 	c #D6995B",
"H 	c #D39357",
"I 	c #D0673A",
"J 	c #CF673B",
"K 	c #C67445",
"L 	c #C46F42",
"M 	c #C0653C",
"N 	c #BE6039",
"O 	c #BC5B36",
"P 	c #CB4D29",
"Q 	c #E2A35F",
"R 	c #E6C475",
"S 	c #E4BE71",
"T 	c #E2B86E",
"U 	c #E0B26A",
"V 	c #DDAC67",
"W 	c #DAA663",
"X 	c #D8A05F",
"Y 	c #D69A5B",
"Z 	c #D39458",
"` 	c #D27342",
" .	c #D26B3C",
"..	c #CE844E",
"+.	c #CA7A49",
"@.	c #C67043",
"#.	c #C0613A",
"$.	c #BE5C37",
"%.	c #C4522E",
"&.	c #E8C978",
"*.	c #E6C375",
"=.	c #E2B86D",
"-.	c #DFB26A",
";.	c #DDAC66",
">.	c #D58049",
",.	c #D57140",
"'.	c #D37442",
").	c #D08B53",
"!.	c #CA7C4A",
"~.	c #C67244",
"{.	c #C46C41",
"].	c #C2673E",
"^.	c #BE5D37",
"/.	c #BC5834",
"(.	c #C74D2A",
"_.	c #E7C676",
":.	c #E5C173",
"<.	c #E3BC70",
"[.	c #E1B66D",
"}.	c #DEB069",
"|.	c #DCAA66",
"1.	c #D9A362",
"2.	c #D67C48",
"3.	c #D77643",
"4.	c #D4975A",
"5.	c #D19057",
"6.	c #CE8751",
"7.	c #CC824E",
"8.	c #CA7D4B",
"9.	c #C87847",
"0.	c #BC5835",
"a.	c #BA5332",
"b.	c #CD4A27",
"c.	c #E0B46B",
"d.	c #DEAE68",
"e.	c #D7874F",
"f.	c #B6693E",
"g.	c #D78049",
"h.	c #D79D5E",
"i.	c #D18D54",
"j.	c #CD8751",
"k.	c #CA7E4B",
"l.	c #C87848",
"m.	c #C67345",
"n.	c #C46E42",
"o.	c #C06B42",
"p.	c #B26F55",
"q.	c #9E7C77",
"r.	c #8A8897",
"s.	c #7A94B4",
"t.	c #7895B4",
"u.	c #758FAD",
"v.	c #718CAB",
"w.	c #E0B46C",
"x.	c #DA824A",
"y.	c #B97143",
"z.	c #D9D9D9",
"A.	c #C3BEB8",
"B.	c #B7A38C",
"C.	c #AC8661",
"D.	c #BE8450",
"E.	c #CF8852",
"F.	c #CD844E",
"G.	c #C77948",
"H.	c #C57445",
"I.	c #BE7450",
"J.	c #AA857C",
"K.	c #97A4B7",
"L.	c #84A0BC",
"M.	c #7E99B6",
"N.	c #7692B0",
"O.	c #738CAA",
"P.	c #6F89A7",
"Q.	c #6F88A4",
"R.	c #6C86A4",
"S.	c #6B85A1",
"T.	c #DB8C50",
"U.	c #DC814A",
"V.	c #DB8F52",
"W.	c #B29975",
"X.	c #FFFFFF",
"Y.	c #FCFCFC",
"Z.	c #FEFEFE",
"`.	c #E0E0E0",
" +	c #BDB5AD",
".+	c #B29680",
"++	c #A67653",
"@+	c #BB7547",
"#+	c #C07A54",
"$+	c #99878A",
"%+	c #879DB7",
"&+	c #8099B6",
"*+	c #748EAD",
"=+	c #728DAA",
"-+	c #6F8BA8",
";+	c #6E87A4",
">+	c #6C85A0",
",+	c #69829D",
"'+	c #677D98",
")+	c #667C96",
"!+	c #657E99",
"~+	c #DC824A",
"{+	c #DE8C50",
"]+	c #E0B36B",
"^+	c #BDB1A1",
"/+	c #FDFDFD",
"(+	c #9E9470",
"_+	c #BFB697",
":+	c #C4C2B9",
"<+	c #E8E8E8",
"[+	c #D8D8D8",
"}+	c #B6ACA5",
"|+	c #817875",
"1+	c #6E7676",
"2+	c #67829D",
"3+	c #708BAD",
"4+	c #728EAD",
"5+	c #718CAA",
"6+	c #6E88A4",
"7+	c #6B84A0",
"8+	c #69819C",
"9+	c #677E99",
"0+	c #647B94",
"a+	c #617891",
"b+	c #5F758E",
"c+	c #647D96",
"d+	c #DE874D",
"e+	c #E5BE71",
"f+	c #E2B66D",
"g+	c #D3A865",
"h+	c #D3D2D0",
"i+	c #D3D2D1",
"j+	c #E0CA7A",
"k+	c #EED680",
"l+	c #EDD580",
"m+	c #AEA47F",
"n+	c #FDFEFE",
"o+	c #B2BCC0",
"p+	c #CDCFCD",
"q+	c #E1E0DA",
"r+	c #5C7691",
"s+	c #73899C",
"t+	c #718494",
"u+	c #607A95",
"v+	c #6B84A2",
"w+	c #667E98",
"x+	c #647B95",
"y+	c #617790",
"z+	c #5E748D",
"A+	c #5C7189",
"B+	c #5B6E86",
"C+	c #586E88",
"D+	c #E2B96E",
"E+	c #B39464",
"F+	c #C1BBA5",
"G+	c #C1BDAE",
"H+	c #DAE0E2",
"I+	c #B0B5B0",
"J+	c #8C9695",
"K+	c #828F96",
"L+	c #ECEAE2",
"M+	c #F6F3ED",
"N+	c #6C7D87",
"O+	c #65809C",
"P+	c #5A6F85",
"Q+	c #576B81",
"R+	c #566A80",
"S+	c #E2BA6F",
"T+	c #E1B66C",
"U+	c #BAA88D",
"V+	c #A49A78",
"W+	c #E4CD7C",
"X+	c #DAC477",
"Y+	c #DCDCDB",
"Z+	c #F8FAFC",
"`+	c #B1B8B8",
" @	c #BCB8B5",
".@	c #B2B2B1",
"+@	c #979D9C",
"@@	c #F6F7F7",
"#@	c #748389",
"$@	c #617B98",
"%@	c #647C95",
"&@	c #5F758D",
"*@	c #5C7289",
"=@	c #576C82",
"-@	c #55687D",
";@	c #54677D",
">@	c #DCAD67",
",@	c #C6C1BA",
"'@	c #FAFAFA",
")@	c #D0D0CE",
"!@	c #C3BEAA",
"~@	c #B2AB92",
"{@	c #F5F5F5",
"]@	c #CDD5D8",
"^@	c #6C6D6C",
"/@	c #575353",
"(@	c #6E7271",
"_@	c #D1D5D3",
":@	c #EAE9E9",
"<@	c #EEEEEE",
"[@	c #717F8A",
"}@	c #5E7894",
"|@	c #617892",
"1@	c #5C728A",
"2@	c #596E85",
"3@	c #576B82",
"4@	c #54687E",
"5@	c #526579",
"6@	c #4E6174",
"7@	c #51677C",
"8@	c #BA935C",
"9@	c #EFEFEF",
"0@	c #D3D3D3",
"a@	c #C8C8C8",
"b@	c #F1F1F1",
"c@	c #D1D1D1",
"d@	c #9B9A9A",
"e@	c #DBDBDA",
"f@	c #A7AEB0",
"g@	c #22211D",
"h@	c #151614",
"i@	c #919A96",
"j@	c #BEBCBC",
"k@	c #898989",
"l@	c #C3C2C2",
"m@	c #DDDEDA",
"n@	c #5D7285",
"o@	c #5F7793",
"p@	c #5A6F86",
"q@	c #52657B",
"r@	c #4F6277",
"s@	c #4D6074",
"t@	c #B29876",
"u@	c #C3C3C3",
"v@	c #888888",
"w@	c #7B7B7B",
"x@	c #8C8C8C",
"y@	c #C5C5C5",
"z@	c #838383",
"A@	c #595755",
"B@	c #70757C",
"C@	c #7D92A6",
"D@	c #343B38",
"E@	c #4E6575",
"F@	c #9FA2A0",
"G@	c #464445",
"H@	c #383838",
"I@	c #A6A3A0",
"J@	c #9DA8AA",
"K@	c #506984",
"L@	c #5F7690",
"M@	c #5D728A",
"N@	c #586C83",
"O@	c #4D5F73",
"P@	c #4C5E73",
"Q@	c #465360",
"R@	c #DCA864",
"S@	c #BCAFA1",
"T@	c #939393",
"U@	c #7E7E7E",
"V@	c #262424",
"W@	c #6E6D6D",
"X@	c #5E5E5D",
"Y@	c #383531",
"Z@	c #3F4751",
"`@	c #85A7CC",
" #	c #6C87A4",
".#	c #7290B3",
"+#	c #62645C",
"@#	c #0F0B0A",
"##	c #16120E",
"$#	c #A4ABA8",
"%#	c #566D84",
"&#	c #5B738E",
"*#	c #56697F",
"=#	c #50657B",
"-#	c #4A5C6E",
";#	c #495C71",
">#	c #45525F",
",#	c #DAA361",
"'#	c #CA965B",
")#	c #D5D4D3",
"!#	c #F6F6F6",
"~#	c #C6C6C6",
"{#	c #6A6B6C",
"]#	c #616974",
"^#	c #322E2B",
"/#	c #070000",
"(#	c #586C81",
"_#	c #7A97B9",
":#	c #7089A7",
"<#	c #66829E",
"[#	c #596A73",
"}#	c #4D514E",
"|#	c #616E70",
"1#	c #5B7590",
"2#	c #627790",
"3#	c #5F748C",
"4#	c #5C7187",
"5#	c #586D82",
"6#	c #506276",
"7#	c #4E5F73",
"8#	c #4B5C6F",
"9#	c #48576A",
"0#	c #49596E",
"a#	c #3F4652",
"b#	c #AC865D",
"c#	c #DFDFDF",
"d#	c #C1C3C6",
"e#	c #88A2BE",
"f#	c #516176",
"g#	c #445363",
"h#	c #81A0C2",
"i#	c #728CA9",
"j#	c #6D86A2",
"k#	c #6D85A2",
"l#	c #6E88A8",
"m#	c #6E8AA9",
"n#	c #728FAF",
"o#	c #6C85A2",
"p#	c #4F5F6E",
"q#	c #2F3844",
"r#	c #2A333F",
"s#	c #28303B",
"t#	c #272F39",
"u#	c #4A5C6F",
"v#	c #506376",
"w#	c #49596C",
"x#	c #465668",
"y#	c #48586C",
"z#	c #403B41",
"A#	c #D69A5C",
"B#	c #B59E88",
"C#	c #F3F5F7",
"D#	c #A4BBD5",
"E#	c #7F9CBE",
"F#	c #7A97B7",
"G#	c #728CAA",
"H#	c #6D85A1",
"I#	c #6A839D",
"J#	c #6B839F",
"K#	c #3A4757",
"L#	c #20262C",
"M#	c #181D23",
"N#	c #090909",
"O#	c #000000",
"P#	c #2C2822",
"Q#	c #42494E",
"R#	c #171A1D",
"S#	c #090C0D",
"T#	c #546474",
"U#	c #4A5B6F",
"V#	c #445364",
"W#	c #475566",
"X#	c #452C2E",
"Y#	c #D49559",
"Z#	c #D39358",
"`#	c #C2BCB7",
" $	c #FBFCFD",
".$	c #BAC8D8",
"+$	c #728CAC",
"@$	c #708AA6",
"#$	c #6B84A1",
"$$	c #6A839E",
"%$	c #67809B",
"&$	c #67819C",
"*$	c #404E5F",
"=$	c #040505",
"-$	c #07080B",
";$	c #040402",
">$	c #444E57",
",$	c #222932",
"'$	c #0B0E10",
")$	c #1F2630",
"!$	c #55687E",
"~$	c #14191F",
"{$	c #0B0D10",
"]$	c #4A596D",
"^$	c #415162",
"/$	c #444C58",
"($	c #57231F",
"_$	c #B07B4D",
":$	c #D5DBE2",
"<$	c #7D96B1",
"[$	c #657D97",
"}$	c #647D97",
"|$	c #607790",
"1$	c #647B96",
"2$	c #1B2128",
"3$	c #0C0E12",
"4$	c #262E37",
"5$	c #5A6E85",
"6$	c #111619",
"7$	c #1D2125",
"8$	c #4B5C6E",
"9$	c #1F262F",
"0$	c #465568",
"a$	c #404F60",
"b$	c #415063",
"c$	c #4B3E43",
"d$	c #6D1A12",
"e$	c #AC886A",
"f$	c #F0F2F3",
"g$	c #9AA9BA",
"h$	c #6F8AA7",
"i$	c #68809B",
"j$	c #627A93",
"k$	c #60768F",
"l$	c #5D738B",
"m$	c #5A6F87",
"n$	c #5B7088",
"o$	c #48596D",
"p$	c #060709",
"q$	c #1E262C",
"r$	c #455668",
"s$	c #2B343F",
"t$	c #435364",
"u$	c #465769",
"v$	c #3B4958",
"w$	c #3A4A5A",
"x$	c #485462",
"y$	c #4E201A",
"z$	c #891710",
"A$	c #BAA99C",
"B$	c #CED2D7",
"C$	c #768DA4",
"D$	c #6A839F",
"E$	c #637A94",
"F$	c #607690",
"G$	c #5B7087",
"H$	c #586D84",
"I$	c #566A81",
"J$	c #53687D",
"K$	c #54667E",
"L$	c #435265",
"M$	c #3D4B5C",
"N$	c #4C5C70",
"O$	c #47576B",
"P$	c #47596A",
"Q$	c #3D4B5A",
"R$	c #303C49",
"S$	c #3E4F61",
"T$	c #4B3D3D",
"U$	c #65120B",
"V$	c #9B170F",
"W$	c #A47250",
"X$	c #B2917C",
"Y$	c #BEB0A7",
"Z$	c #D4D4D3",
"`$	c #B3B9C1",
" %	c #667F98",
".%	c #65768B",
"+%	c #5E7690",
"@%	c #5B7188",
"#%	c #576E85",
"$%	c #566E86",
"%%	c #595E69",
"&%	c #556676",
"*%	c #4E6176",
"=%	c #4C5E71",
"-%	c #4A5B6D",
";%	c #47586A",
">%	c #455667",
",%	c #3F4D5E",
"'%	c #2A3440",
")%	c #374353",
"!%	c #514F56",
"~%	c #4E140D",
"{%	c #961C13",
"]%	c #A0120B",
"^%	c #CA7B49",
"/%	c #C97948",
"(%	c #BE7144",
"_%	c #A06746",
":%	c #AC8570",
"<%	c #BCAAA0",
"[%	c #D3D2D2",
"}%	c #EBEAEA",
"|%	c #685A59",
"1%	c #604F4C",
"2%	c #5D6D81",
"3%	c #5A7188",
"4%	c #5D5F67",
"5%	c #643923",
"6%	c #566575",
"7%	c #4D5F74",
"8%	c #495A6D",
"9%	c #455568",
"0%	c #2E3846",
"a%	c #2D3845",
"b%	c #4B4E59",
"c%	c #4C2724",
"d%	c #841C14",
"e%	c #A1150D",
"f%	c #9F1009",
"g%	c #CF5B32",
"h%	c #C77445",
"i%	c #C67143",
"j%	c #C56F42",
"k%	c #C36A40",
"l%	c #BA643C",
"m%	c #9D5D41",
"n%	c #AD826F",
"o%	c #B09083",
"p%	c #8F5B4B",
"q%	c #60504F",
"r%	c #463834",
"s%	c #3A3B41",
"t%	c #63473A",
"u%	c #673921",
"v%	c #624D46",
"w%	c #4F6479",
"x%	c #455567",
"y%	c #384452",
"z%	c #2D3843",
"A%	c #242F3B",
"B%	c #4A4D5A",
"C%	c #4E3231",
"D%	c #721C14",
"E%	c #9E1910",
"F%	c #9E0E08",
"G%	c #CB6037",
"H%	c #C46E41",
"I%	c #C46C40",
"J%	c #C36A3F",
"K%	c #C1663D",
"L%	c #C0643B",
"M%	c #BF613A",
"N%	c #BD5B36",
"O%	c #B75938",
"P%	c #925545",
"Q%	c #514C56",
"R%	c #3F4A58",
"S%	c #545965",
"T%	c #596373",
"U%	c #55677F",
"V%	c #485D71",
"W%	c #475668",
"X%	c #3C4A5A",
"Y%	c #313C49",
"Z%	c #2B3643",
"`%	c #2C3745",
" &	c #4F5360",
".&	c #53322E",
"+&	c #6B1911",
"@&	c #9A1B12",
"#&	c #A0140C",
"$&	c #B62714",
"%&	c #CB3A1D",
"&&	c #C85F36",
"*&	c #C2693E",
"=&	c #C2673D",
"-&	c #C1663C",
";&	c #BE5F39",
">&	c #BC5A35",
",&	c #BB5734",
"'&	c #BA5432",
")&	c #B85031",
"!&	c #935243",
"~&	c #645862",
"{&	c #554D57",
"]&	c #4F5867",
"^&	c #516275",
"/&	c #465768",
"(&	c #3A495B",
"_&	c #374655",
":&	c #394555",
"<&	c #414D58",
"[&	c #534D52",
"}&	c #532E29",
"|&	c #71170F",
"1&	c #9D1E13",
"2&	c #A4180D",
"3&	c #C23219",
"4&	c #CB5630",
"5&	c #BF6039",
"6&	c #BC5A36",
"7&	c #BA5533",
"8&	c #BA5231",
"9&	c #B8502F",
"0&	c #B74C2D",
"a&	c #B5492C",
"b&	c #A24934",
"c&	c #8A3723",
"d&	c #653025",
"e&	c #4E3332",
"f&	c #473D42",
"g&	c #46434A",
"h&	c #48444B",
"i&	c #483E41",
"j&	c #51312E",
"k&	c #60221B",
"l&	c #7F1F16",
"m&	c #A01E13",
"n&	c #AB1E10",
"              . + @ # $ % & * = - ; >                           ",
"          , ' ) ! ~ { ] ^ / ( _ : < [ }                         ",
"        | 1 2 3 4 5 6 7 8 9 0 a b c d e f                       ",
"    g h i j k l m n o # p q r s t u v w x                       ",
"y z A B C D E F G H @ # I J 9 K L = M N O P                     ",
"Q R S T U V W X Y Z `  ...p +.& @._ c #.$.%.                    ",
"&.*.S =.-.;.W X >.,.'.).# $ !./ ~.{.].d ^./.(.                  ",
"_.:.<.[.}.|.1.2.3.4.5.@ 6.7.8.9.~.t u v w 0.a.b.                ",
":.A T c.d.e.f.g.h.m n i.j.] k.l.m.n.o.p.q.r.s.t.u.v.            ",
"<.T w.}.x.y.z.A.B.C.D.~ E.F.k.G.H.I.J.K.L.M.N.O.P.Q.R.S.        ",
"[.c.T.U.V.W.X.Y.X.Z.`. +.+++@+9 #+$+%+&+*+=+-+;+>+,+'+)+!+      ",
"}.~+{+T ]+^+/+(+_+:+<+X.X.Z.[+}+|+1+2+3+4+5+6+7+8+9+0+a+b+c+    ",
"d+e+<.f+g+h+i+j+k+l+m+X.X.X.n+o+p+q+r+s+t+u+v+8+w+x+y+z+A+B+C+  ",
":.A D+w.E+Y.F+k+k+k+G+X.X.X.H+I+X.J+K+L+M+N+O+w+x+a+z+A+P+Q+R+  ",
"A S+T+-.U+X.V+W+k+X+Y+X.X.Z+`+ @.@+@@@X.X.#@$@%@a+&@*@P+=@-@;@  ",
"T T+-.>@,@Z.'@)@!@~@Z.{@Z.]@^@/@(@_@:@<@X.[@}@|@b+1@2@3@4@5@6@7@",
"c.C d.8@9@0@a@a@b@'@c@d@e@f@g@h@i@j@k@l@m@n@o@b+1@p@=@4@q@r@s@r@",
"d.V j t@X.u@v@w@x@y@z@A@B@C@D@E@F@G@H@I@J@K@L@M@p@N@4@q@r@O@P@Q@",
"j R@W S@X.z.T@U@V@W@X@Y@Z@`@ #.#+#@###$#%#&#M@p@N@*#=#r@O@-#;#>#",
"k ,#'#)#X.!#~#T@{#]#^#/#(#_#:#<#[#}#|#1#o@2#3#4#5#-@6#7#8#9#0#a#",
"X l b#/+X.Z.!#c#d#e#f#g#h#i#j#k#l#m#n#o#p#q#r#s#t#u#v#8#w#x#y#z#",
"A#G B#X.X.X.X.Y.C#D#E#F#G#H#I#J#I#K#L#M#N#O#P#Q#R#S#T#U#x#V#W#X#",
"Y#Z#`#X.X.X.X.X. $.$+$@$#$$$%$&$*$=$-$;$>$,$'$)$!$~${$]$V#^$/$($",
"5 _$<@X.X.X.X.X.Z.:$<$P.I#%$[$}$z+|$1$2$3$4$5$6$7$8$9$0$a$b$c$d$",
").e$X.X.X.X.X.X.X.f$g$h$i$[$j$k$l$m$n$p@o$p$q$r$s$t$u$v$w$x$y$z$",
"# A$X.X.X.X.X.X.X./+B$C$D$E$F$l$G$H$I$J$K$L$M$N$O$P$Q$R$S$T$U$V$",
"$ W$X$Y$Z$Y.X.X.X.X.'@`$ %.%+%@%#%$%%%&%*%=%-%;%>%,%'%)%!%~%{%]%",
"^%+./%9.(%_%:%<%[%/+X.}%|%1%2%&#3%4%5%6%7%8%O$9%Q$0%a%b%c%d%e%f%",
"g%& h%0 i%j%t k%l%m%n%o%p%q%r%s%t%u%v%w%-#w#x%y%z%A%B%C%D%E%]%F%",
"  G%L H%I%J%u K%L%M%w N%O%P%Q%R%S%T%U%V%W%X%Y%Z%`% &.&+&@&#&$&%&",
"    &&*&=&-&L%#.;&$.>&,&'&)&!&~&{&]&^&/&(&_&:&<&[&}&|&1&2&3&    ",
"    4&L%d 5&w $.6&/.7&8&9&0&a&b&c&d&e&f&g&h&i&j&k&l&m&n&        "};
